{
    "asset" : {
        "generator" : "Khronos glTF Blender I/O v1.6.16",
        "version" : "2.0"
    },
    "scene" : 0,
    "scenes" : [
        {
            "name" : "Scene",
            "nodes" : [
                0,
                1,
                2
            ]
        }
    ],
    "nodes" : [
        {
            "mesh" : 0,
            "name" : "body",
            "rotation" : [
                0,
                0.7071068286895752,
                0,
                0.7071068286895752
            ],
            "scale" : [
                0.9670596122741699,
                0.8790866136550903,
                0.9999887943267822
            ],
            "translation" : [
                0,
                17.155319213867188,
                0
            ]
        },
        {
            "mesh" : 1,
            "name" : "rope1",
            "rotation" : [
                0,
                0.7071068286895752,
                0,
                0.7071068286895752
            ],
            "scale" : [
                1,
                1.0539391040802002,
                1.0539391040802002
            ],
            "translation" : [
                4.8525495529174805,
                37.31517028808594,
                0
            ]
        },
        {
            "mesh" : 2,
            "name" : "rope2",
            "rotation" : [
                0,
                0.7071068286895752,
                0,
                0.7071068286895752
            ],
            "scale" : [
                1,
                1.0539391040802002,
                1.0539391040802002
            ],
            "translation" : [
                -4.806905746459961,
                37.2362060546875,
                0
            ]
        }
    ],
    "meshes" : [
        {
            "name" : "bofy",
            "primitives" : [
                {
                    "attributes" : {
                        "POSITION" : 0,
                        "NORMAL" : 1,
                        "TEXCOORD_0" : 2
                    },
                    "indices" : 3
                }
            ]
        },
        {
            "name" : "rope1",
            "primitives" : [
                {
                    "attributes" : {
                        "POSITION" : 4,
                        "NORMAL" : 5,
                        "TEXCOORD_0" : 6
                    },
                    "indices" : 7
                }
            ]
        },
        {
            "name" : "rope2",
            "primitives" : [
                {
                    "attributes" : {
                        "POSITION" : 8,
                        "NORMAL" : 9,
                        "TEXCOORD_0" : 10
                    },
                    "indices" : 11
                }
            ]
        }
    ],
    "accessors" : [
        {
            "bufferView" : 0,
            "componentType" : 5126,
            "count" : 30,
            "max" : [
                14.778258323669434,
                22.273216247558594,
                4.110614776611328
            ],
            "min" : [
                -14.778260231018066,
                -19.288639068603516,
                -4.110613822937012
            ],
            "type" : "VEC3"
        },
        {
            "bufferView" : 1,
            "componentType" : 5126,
            "count" : 30,
            "type" : "VEC3"
        },
        {
            "bufferView" : 2,
            "componentType" : 5126,
            "count" : 30,
            "type" : "VEC2"
        },
        {
            "bufferView" : 3,
            "componentType" : 5123,
            "count" : 60,
            "type" : "SCALAR"
        },
        {
            "bufferView" : 4,
            "componentType" : 5126,
            "count" : 1569,
            "max" : [
                7.021213531494141,
                6.658321380615234,
                0.8590068817138672
            ],
            "min" : [
                -6.45640754699707,
                -5.522930145263672,
                -1.4734630584716797
            ],
            "type" : "VEC3"
        },
        {
            "bufferView" : 5,
            "componentType" : 5126,
            "count" : 1569,
            "type" : "VEC3"
        },
        {
            "bufferView" : 6,
            "componentType" : 5126,
            "count" : 1569,
            "type" : "VEC2"
        },
        {
            "bufferView" : 7,
            "componentType" : 5123,
            "count" : 7098,
            "type" : "SCALAR"
        },
        {
            "bufferView" : 8,
            "componentType" : 5126,
            "count" : 1546,
            "max" : [
                7.021213531494141,
                6.658321380615234,
                1.4734609127044678
            ],
            "min" : [
                -6.45640754699707,
                -5.522930145263672,
                -0.8590087890625
            ],
            "type" : "VEC3"
        },
        {
            "bufferView" : 9,
            "componentType" : 5126,
            "count" : 1546,
            "type" : "VEC3"
        },
        {
            "bufferView" : 10,
            "componentType" : 5126,
            "count" : 1546,
            "type" : "VEC2"
        },
        {
            "bufferView" : 11,
            "componentType" : 5123,
            "count" : 7098,
            "type" : "SCALAR"
        }
    ],
    "bufferViews" : [
        {
            "buffer" : 0,
            "byteLength" : 360,
            "byteOffset" : 0
        },
        {
            "buffer" : 0,
            "byteLength" : 360,
            "byteOffset" : 360
        },
        {
            "buffer" : 0,
            "byteLength" : 240,
            "byteOffset" : 720
        },
        {
            "buffer" : 0,
            "byteLength" : 120,
            "byteOffset" : 960
        },
        {
            "buffer" : 0,
            "byteLength" : 18828,
            "byteOffset" : 1080
        },
        {
            "buffer" : 0,
            "byteLength" : 18828,
            "byteOffset" : 19908
        },
        {
            "buffer" : 0,
            "byteLength" : 12552,
            "byteOffset" : 38736
        },
        {
            "buffer" : 0,
            "byteLength" : 14196,
            "byteOffset" : 51288
        },
        {
            "buffer" : 0,
            "byteLength" : 18552,
            "byteOffset" : 65484
        },
        {
            "buffer" : 0,
            "byteLength" : 18552,
            "byteOffset" : 84036
        },
        {
            "buffer" : 0,
            "byteLength" : 12368,
            "byteOffset" : 102588
        },
        {
            "buffer" : 0,
            "byteLength" : 14196,
            "byteOffset" : 114956
        }
    ],
    "buffers" : [
        {
            "byteLength" : 129152,
            "uri" : "data:application/octet-stream;base64,"
        }
    ]
}
